<?xml version="1.0" encoding="UTF-8" standalone="no"?>
<!-- Created with Inkscape (http://www.inkscape.org/) -->

<svg
   width="210mm"
   height="297mm"
   viewBox="0 0 210 297"
   version="1.1"
   id="svg1"
   inkscape:version="1.3.2 (091e20e, 2023-11-25, custom)"
   sodipodi:docname="sarusejis_zobrats.svg"
   xmlns:inkscape="http://www.inkscape.org/namespaces/inkscape"
   xmlns:sodipodi="http://sodipodi.sourceforge.net/DTD/sodipodi-0.dtd"
   xmlns="http://www.w3.org/2000/svg"
   xmlns:svg="http://www.w3.org/2000/svg">
  <sodipodi:namedview
     id="namedview1"
     pagecolor="#ffffff"
     bordercolor="#000000"
     borderopacity="0.25"
     inkscape:showpageshadow="2"
     inkscape:pageopacity="0.0"
     inkscape:pagecheckerboard="0"
     inkscape:deskcolor="#d1d1d1"
     inkscape:document-units="mm"
     inkscape:zoom="0.73139029"
     inkscape:cx="341.81476"
     inkscape:cy="561.25984"
     inkscape:window-width="1157"
     inkscape:window-height="1017"
     inkscape:window-x="755"
     inkscape:window-y="0"
     inkscape:window-maximized="0"
     inkscape:current-layer="layer1" />
  <defs
     id="defs1">
    <filter
       inkscape:label="Drop Shadow"
       inkscape:menu="Materials"
       inkscape:menu-tooltip="Eroded metal texture with ridges, grooves, holes and bumps"
       style="color-interpolation-filters:sRGB;"
       id="filter28"
       x="-0.1964302"
       y="-0.1962168"
       width="1.463014"
       height="1.462511">
      <feGaussianBlur
         result="result0"
         in="SourceGraphic"
         stdDeviation="1"
         id="feGaussianBlur25" />
      <feTurbulence
         type="turbulence"
         baseFrequency="0.057"
         seed="4"
         numOctaves="4"
         result="result1"
         id="feTurbulence25" />
      <feDisplacementMap
         xChannelSelector="R"
         in2="result1"
         result="result91"
         id="feDisplacementMap25" />
      <feComposite
         result="result2"
         operator="out"
         in="result0"
         in2="result91"
         id="feComposite25" />
      <feComposite
         k1="0.1"
         k3="1.2"
         in2="result2"
         in="SourceAlpha"
         operator="arithmetic"
         result="result5"
         id="feComposite26" />
      <feBlend
         result="fbSourceGraphic"
         mode="multiply"
         in2="result5"
         id="feBlend26" />
      <feGaussianBlur
         stdDeviation="3"
         in="fbSourceGraphic"
         result="result0"
         id="feGaussianBlur26" />
      <feSpecularLighting
         in="result0"
         result="result1"
         lighting-color="rgb(254,230,93)"
         surfaceScale="3"
         specularConstant="0.4"
         specularExponent="15"
         id="feSpecularLighting26">
        <fePointLight
           x="-5000"
           y="-10000"
           z="20000"
           id="fePointLight26" />
      </feSpecularLighting>
      <feComposite
         in2="fbSourceGraphic"
         in="result1"
         result="result2"
         operator="in"
         id="feComposite27" />
      <feComposite
         k1="-1"
         in="fbSourceGraphic"
         result="result4"
         operator="arithmetic"
         k2="2.5"
         k3="3.5"
         in2="result2"
         id="feComposite28" />
      <feBlend
         mode="multiply"
         in2="result4"
         id="feBlend28"
         result="fbSourceGraphic" />
      <feColorMatrix
         result="fbSourceGraphicAlpha"
         in="fbSourceGraphic"
         values="0 0 0 -1 0 0 0 0 -1 0 0 0 0 -1 0 0 0 0 1 0"
         id="feColorMatrix28" />
      <feFlood
         id="feFlood28"
         result="flood"
         in="fbSourceGraphic"
         flood-opacity="0.498039"
         flood-color="rgb(0,0,0)" />
      <feGaussianBlur
         id="feGaussianBlur28"
         result="blur"
         in="fbSourceGraphic"
         stdDeviation="3.000000" />
      <feOffset
         id="feOffset28"
         result="offset"
         in="blur"
         dx="6.000000"
         dy="6.000000" />
      <feComposite
         id="feComposite29"
         result="comp1"
         operator="in"
         in="flood"
         in2="offset" />
      <feComposite
         id="feComposite30"
         result="comp2"
         operator="over"
         in="fbSourceGraphic"
         in2="comp1" />
    </filter>
  </defs>
  <g
     inkscape:label="SlÄnis 1"
     inkscape:groupmode="layer"
     id="layer1">
    <path
       id="path3"
       style="fill:#552200;stroke:#f8ff33;stroke-width:0;stroke-dasharray:none;filter:url(#filter28)"
       inkscape:transform-center-x="-1.4018582"
       inkscape:transform-center-y="20.438249"
       d="m 107.1503,104.59757 -3.13573,5.32267 a 37.054203,37.054203 0 0 0 -4.620903,0.38861 l -4.05144,-4.53254 a 42.867844,42.867844 0 0 0 -19.240683,10.157 l 1.573547,6.08594 a 37.054203,37.054203 0 0 0 -2.814815,3.55327 l -6.367053,-0.35657 a 42.867844,42.867844 0 0 0 -6.176367,20.86849 l 5.882328,3.46491 a 37.054203,37.054203 0 0 0 0.424264,3.71192 l -5.04052,4.50566 a 42.867844,42.867844 0 0 0 10.592118,19.20349 l 6.975285,-1.80351 a 37.054203,37.054203 0 0 0 2.195732,1.64331 l -0.405143,7.2285 a 42.867844,42.867844 0 0 0 21.23178,6.17843 l 3.76153,-6.38514 a 37.054203,37.054203 0 0 0 2.13268,-0.22531 l 4.85242,5.4281 a 42.867844,42.867844 0 0 0 19.58899,-10.56887 l -1.78801,-6.91585 a 37.054203,37.054203 0 0 0 1.42059,-1.70016 l 7.19595,0.40307 a 42.867844,42.867844 0 0 0 6.50657,-21.24572 l -5.82032,-3.42874 a 37.054203,37.054203 0 0 0 -0.20721,-2.89646 l 5.10769,-4.56561 a 42.867844,42.867844 0 0 0 -10.14822,-19.57038 l -6.19445,1.60197 a 37.054203,37.054203 0 0 0 -2.96261,-2.53267 l 0.36019,-6.43113 a 42.867844,42.867844 0 0 0 -20.82819,-6.58668 z m -1.72496,20.80339 a 20.775274,20.775274 0 0 1 20.77547,20.77495 20.775274,20.775274 0 0 1 -20.77547,20.77547 20.775274,20.775274 0 0 1 -20.774964,-20.77547 20.775274,20.775274 0 0 1 20.774964,-20.77495 z" />
  </g>
</svg>
